<svg width="24" height="24" viewBox="0 0 24 24" fill="none" xmlns="http://www.w3.org/2000/svg">
<path fill-rule="evenodd" clip-rule="evenodd" d="M8.73686 9.62458H5.15268C4.62676 9.62026 4.12066 9.82502 3.74571 10.1938C3.37075 10.5626 3.15766 11.0652 3.15332 11.5911V19.0337C3.16305 20.1284 4.05801 21.0081 5.15268 20.9989H8.73686C9.26273 21.0033 9.76889 20.7986 10.1439 20.4298C10.5188 20.061 10.7319 19.5584 10.7362 19.0324V11.5911C10.7319 11.0652 10.5188 10.5626 10.1439 10.1938C9.76889 9.82502 9.26273 9.62026 8.73686 9.62458Z" stroke="white" stroke-width="1.5" stroke-linecap="round" stroke-linejoin="round"/>
<path fill-rule="evenodd" clip-rule="evenodd" d="M8.73686 2.04178H5.15268C4.08003 2.01203 3.18566 2.85608 3.15332 3.92865V5.21016C3.18566 6.28275 4.08003 7.1268 5.15268 7.09704H8.73686C9.80946 7.1268 10.7039 6.28275 10.7362 5.21016V3.92865C10.7039 2.85608 9.80946 2.01203 8.73686 2.04178Z" stroke="white" stroke-width="1.5" stroke-linecap="round" stroke-linejoin="round"/>
<path fill-rule="evenodd" clip-rule="evenodd" d="M15.263 13.4164H18.8459C19.3721 13.4211 19.8785 13.2165 20.2537 12.8477C20.6289 12.4788 20.8423 11.9761 20.8466 11.45V4.00856C20.8423 3.48266 20.6292 2.98001 20.2542 2.61122C19.8792 2.24243 19.3731 2.03769 18.8472 2.04206H15.263C14.7372 2.03769 14.231 2.24243 13.856 2.61122C13.481 2.98001 13.268 3.48266 13.2637 4.00856V11.45C13.268 11.9758 13.481 12.4784 13.856 12.8472C14.231 13.216 14.7372 13.4207 15.263 13.4164Z" stroke="white" stroke-width="1.5" stroke-linecap="round" stroke-linejoin="round"/>
<path fill-rule="evenodd" clip-rule="evenodd" d="M15.263 20.9989H18.8459C19.919 21.0294 20.8142 20.1851 20.8466 19.112V17.8305C20.8142 16.7579 19.9198 15.9139 18.8472 15.9436H15.263C14.1904 15.9139 13.296 16.7579 13.2637 17.8305V19.1108C13.2953 20.1839 14.1899 21.0286 15.263 20.9989Z" stroke="white" stroke-width="1.5" stroke-linecap="round" stroke-linejoin="round"/>
</svg>
